<svg xmlns="http://www.w3.org/2000/svg" viewBox="0 0 512 512" role="img" aria-label="Chirp beak mark">
  <defs>
    <linearGradient id="chirpUpper" x1="126" y1="164" x2="398" y2="224" gradientUnits="userSpaceOnUse">
      <stop offset="0" stop-color="#6ee7ff" />
      <stop offset="1" stop-color="#3b82f6" />
    </linearGradient>
    <linearGradient id="chirpLower" x1="125" y1="331" x2="397" y2="279" gradientUnits="userSpaceOnUse">
      <stop offset="0" stop-color="#8b5cf6" />
      <stop offset="1" stop-color="#d946ef" />
    </linearGradient>
  </defs>

  <path
    fill="url(#chirpUpper)"
    d="M126 338V230c0-52 43-94 96-94 26 0 45 8 71 22l148 78c19 10 15 32-6 32-103 0-211 8-309 70Z"
  />
  <path
    fill="url(#chirpLower)"
    d="M126 278v4c0 54 43 98 96 98 24 0 48-8 70-21l145-82c18-10 11-32-9-31-113 6-214 12-302 32Z"
  />
  <path
    fill="#101827"
    d="M150 286c82-49 183-61 286-61 12 0 18 13 8 20-86 55-167 79-242 75 1 23-13 42-39 50 10-16 15-31 14-47-13-9-22-21-27-37Z"
  />
</svg>
