<?xml version="1.0" encoding="UTF-8"?>
<svg id="Layer_1" data-name="Layer 1" xmlns="http://www.w3.org/2000/svg" viewBox="0 0 243.03 277.29">
  <defs>
    <style>
      .cls-1 {
        fill: #fff;
      }
    </style>
  </defs>
  <path class="cls-1" d="M118.06.13c7.6-.58,20.69.86,28.29,2.45,32.26,6.76,60.1,26.69,77.84,54.47,17.11,26.78,22.6,59.58,16.32,90.71-.48,2.37-2.88,12.76-4.08,13.81-5.1,4.46-13.31,10.44-18.72,14.44-7.99,5.91-16.8,13.35-24.93,18.68-.39-1.71-.59-3.43-.92-5.14-1.19-6.09-2.05-12.32-3.25-18.4-2.57-12.81-4.97-25.53-6.55-38.52-1.29-10.62-2.58-23.12,4.06-32.37,3.81-5.31,10.55-8.24,16.84-9.16,2.13-.31,4.51-.51,6.52-1.2.62-.21.72-.62.89-1.14-.86-4.33-14.59-13.22-17.09-16.28-2-2.45-3.49-9.36-5.72-13.26-5.94-10.37-13.14-14.27-24.18-17.54-5.14-1.07-8.54-1.65-13.83-1.21-8.22.61-16.13,3.4-22.91,8.09-19.07,13.36-21.08,33.91-27.52,54.57-3.72,11.94-7.95,22.46-14.69,33.05-10.43,16.37-24.75,25.28-38.5,38.1-3.33,3.1-6.71,7.21-9.71,10.75-1.72-1.59-5.37-4.27-7.29-5.75-4.81-3.69-9.63-7.35-14.49-10.98-2.41-1.79-5.04-3.51-7.27-5.53-4.47-4.05-6.7-27.03-7.01-33.55-1.74-32.87,9.87-65.05,32.21-89.23C51.12,19.36,76.32,5.74,103.84,1.37c4.73-.73,9.45-1.02,14.22-1.24Z"/>
  <path class="cls-1" d="M4.96,176.06c2.45.88,15.47,11.8,17.91,13.76,21.32,16.83,42.34,34.03,63.04,51.61l20.88,17.99c15.38,13.43,12.4,14.56,27.65,1.52l21.96-18.94c24.25-20.73,48.96-40.83,74.09-60.49,2.37-1.85,4.92-4.15,7.64-5.38l.05,8.48v43.87c0,5.08-.05,10.3.04,15.37.18,10.1-1.71,19.04-9.61,26.07-4.18,3.74-9.4,6.15-14.96,6.89-5.38.74-18.27.39-24.09.39h-46.83s-73.87.02-73.87.02l-22.47-.03c-13.61.02-25.2,1.31-34.98-10.18-7.24-8.51-6.54-17.96-6.53-28.3l-.02-19.53.05-26.39c-.02-5.24-.31-11.61.05-16.74Z"/>
  <path class="cls-1" d="M160.57,62.09c5.1-1.29,10.27,1.8,11.55,6.9,1.29,5.1-1.81,10.27-6.9,11.55-5.09,1.28-10.26-1.81-11.54-6.9-1.28-5.09,1.8-10.26,6.89-11.55Z"/>
</svg>